<svg id="Production" xmlns="http://www.w3.org/2000/svg" viewBox="0 0 64 64"><defs><style>.cls-1{fill:#bc243a;}</style></defs><path class="cls-1" d="M17.5,12c3.14,0,4.95-2.21,4.95-5.39C22.45,3,20.55,1,17.5,1c-3.22,0-4.95,2.3-4.95,5.57C12.55,10,14.36,12,17.5,12Z"/><path class="cls-1" d="M23,14.7a26,26,0,0,0-11,0C5.61,16.26,6,26.35,6,35.06A3.85,3.85,0,0,0,9.83,39V29.81a28.73,28.73,0,0,1,.76-7.48c.13-.41.41-.33.41-.33V63a5.22,5.22,0,0,0,5.24-5S17,38.71,17,38.49A.51.51,0,0,1,17.5,38a.5.5,0,0,1,.52.49c0,.22.73,19.32.73,19.32A5.22,5.22,0,0,0,24,63V22s.3-.1.45.33a28.71,28.71,0,0,1,.72,7.44V39A3.84,3.84,0,0,0,29,35.06C29,26.35,29.4,16.22,23,14.7Z"/><path class="cls-1" d="M58.25,6.45A2.74,2.74,0,0,0,56,4.19a76.13,76.13,0,0,0-10.18-.57,76,76,0,0,0-10.17.57,2.72,2.72,0,0,0-2.26,2.26,76,76,0,0,0-.57,10.17,76.06,76.06,0,0,0,.57,10.18,2.72,2.72,0,0,0,2.26,2.26,77.35,77.35,0,0,0,10.17.56A77.48,77.48,0,0,0,56,29.06a2.74,2.74,0,0,0,2.26-2.26,77.4,77.4,0,0,0,.56-10.18A62,62,0,0,0,58.25,6.45ZM44.06,7.62l3.81-.3-.3,8.79v3.51H44.06Zm1.79,18.06a1.85,1.85,0,0,1-2.07-2,1.93,1.93,0,0,1,2-2.08,1.88,1.88,0,0,1,2.08,2.08A1.9,1.9,0,0,1,45.85,25.68Z"/></svg>