<svg id="Production" xmlns="http://www.w3.org/2000/svg" viewBox="0 0 64 64"><defs><style>.cls-1{fill:#bc243a;}</style></defs><path class="cls-1" d="M31.5,12c3.14,0,5-2.21,5-5.39C36.45,3,34.55,1,31.5,1c-3.22,0-4.95,2.3-4.95,5.57C26.55,10,28.36,12,31.5,12Z"/><path class="cls-1" d="M37,14.7a26,26,0,0,0-11,0C19.61,16.26,20,26.35,20,35.06A3.85,3.85,0,0,0,23.83,39V29.81a28.73,28.73,0,0,1,.76-7.48c.13-.41.41-.33.41-.33V63a5.22,5.22,0,0,0,5.24-5S31,38.71,31,38.49A.51.51,0,0,1,31.5,38a.5.5,0,0,1,.52.49c0,.22.73,19.32.73,19.32A5.22,5.22,0,0,0,38,63V22s.3-.1.45.33a28.71,28.71,0,0,1,.72,7.44V39A3.84,3.84,0,0,0,43,35.06C43,26.35,43.4,16.22,37,14.7Z"/><path class="cls-1" d="M15.82,5l-1,3.77-5-5L6.93,6.55l5,5L8.17,12.63a1.39,1.39,0,0,0,.19,2.72l9.8,1.15a1.36,1.36,0,0,0,1.13-.39,1.38,1.38,0,0,0,.4-1.14L18.53,5.18A1.37,1.37,0,0,0,17.26,4,1.4,1.4,0,0,0,15.82,5Z"/><path class="cls-1" d="M47.8,5l1,3.77,5-5L56.7,6.55l-5,5,3.78,1.05a1.39,1.39,0,0,1-.19,2.72L45.47,16.5A1.37,1.37,0,0,1,43.94,15l1.15-9.79A1.38,1.38,0,0,1,47.8,5Z"/><path class="cls-1" d="M15.82,59.25l-1-3.77-5,5L6.93,57.68l5-5-3.79-1a1.41,1.41,0,0,1-1-1.44,1.38,1.38,0,0,1,1.21-1.27l9.8-1.16a1.39,1.39,0,0,1,1.53,1.53l-1.16,9.8a1.37,1.37,0,0,1-1.27,1.21A1.4,1.4,0,0,1,15.82,59.25Z"/><path class="cls-1" d="M47.8,59.25l1-3.77,5,5,2.83-2.83-5-5,3.78-1a1.39,1.39,0,0,0,1-1.44,1.37,1.37,0,0,0-1.21-1.27l-9.79-1.16a1.38,1.38,0,0,0-1.14.4,1.35,1.35,0,0,0-.39,1.13l1.15,9.8a1.38,1.38,0,0,0,2.71.19Z"/></svg>