<svg id="Laag_1" data-name="Laag 1" xmlns="http://www.w3.org/2000/svg" viewBox="0 0 73.4 67.67"><defs><style>.cls-1,.cls-2{fill:#bc253a;}.cls-2{font-size:12px;font-family:MyriadPro-Regular, Myriad Pro;}</style></defs><path class="cls-1" d="M30.81,21.88l10.52,5.73,0-.49-11-8.84c-.12-.49-.25-.73-.4-1.19l5.41-.31,2.6-4.39-.13-.28-3.07,2.72-5.63-.24a12,12,0,0,0-1.24-1.83l8.66-3.7,2.57-4.74L38.79,4,35.68,7.81,25.19,10.13c-.24-.16-.48-.3-.74-.44L22.06,2.42H20l-2.59,7.3a6.48,6.48,0,0,0-.7.42L6.17,7.79l-3.23-4-.26.32L5.33,9,14,12.76a10.79,10.79,0,0,0-1.24,1.82l-5.67.23L3.78,11.92l-.15.62L6.5,16.77l5.45.31c-.15.46-.28.69-.4,1.17L1,27.11l0,.37,10.1-5.63c0,.2,0,.41,0,.62L3,43.17l.27.65L12,28.55c1.57,4.74,5,8,9,8s7.37-3.26,9-8l8.49,15,.31-.72L30.83,22.57C30.83,22.34,30.82,22.11,30.81,21.88Z"/><path class="cls-1" d="M52.08,16.13a1.75,1.75,0,1,0,2.48,0A1.76,1.76,0,0,0,52.08,16.13Zm1.79,1.8a.79.79,0,0,1-1.11-1.12.79.79,0,0,1,1.11,1.12Z"/><path class="cls-1" d="M67.93,5.24a10,10,0,0,0-14.06,0L36.18,22.93a27.76,27.76,0,0,0-7,12h0a27.59,27.59,0,0,1-7,12l-7.45,7.46,4.21,4.21,7.46-7.45a27.78,27.78,0,0,1,12-7h0a27.78,27.78,0,0,0,12-7.05L67.93,19.29A9.93,9.93,0,0,0,67.93,5.24ZM60,22,49.44,32.53a2,2,0,0,1-2.81,0L41,26.91a2,2,0,0,1,0-2.81L51.54,13.56a2,2,0,0,1,2.81,0L60,19.18A2,2,0,0,1,60,22Zm2.12-7.06a3.5,3.5,0,1,1,3.5-3.5A3.5,3.5,0,0,1,62.1,14.94Z"/><path class="cls-1" d="M9.71,59.24a3,3,0,0,0,4.22,4.21l3.51-3.51-4.22-4.22Z"/><text class="cls-2" transform="translate(51.14 28.8) rotate(-45)">C</text></svg>