<svg xmlns="http://www.w3.org/2000/svg" viewBox="0 0 64 64"><defs><style>.cls-1{fill:none;}.cls-2{fill:#bc243a;}</style></defs><g id="Box"><rect class="cls-1" width="64" height="64"/></g><g id="Icon"><path class="cls-2" d="M17,52V25.29l-3.15-.93c-.34-.11-.22-.36-.22-.36H28a1,1,0,0,0,1-1V8.63s.25-.11.36.24L30.29,12H47V35.4l5-5V9a2,2,0,0,0-2-2H28.83a2,2,0,0,0-1.42.59L12.59,22.41A2,2,0,0,0,12,23.83V55a2,2,0,0,0,2,2H30.42L32,52Zm33,5a2,2,0,0,0,2-2V50.45L45.45,57Zm9.47-24c-1.91-1.91-4.29-2.63-5.3-1.62L34.69,50.82l-2.85,9a.6.6,0,0,0,.76.76l9-2.84L61.08,38.26C62.1,37.24,61.37,34.86,59.47,33ZM35.63,57.53l-.74-.73,1.43-4.51.92.52L38,54.47l1.57.68.59,1ZM41,29H23v3H41Zm0-10H33v3h8Zm0,16H23v3H41ZM23,44H35V41H23Z"/></g></svg>