<svg xmlns="http://www.w3.org/2000/svg" viewBox="0 0 64 64"><g id="Box"><rect width="64" height="64" style="fill:none"/></g><g id="Icon"><path d="M52.47,45c-2.44-2.49-7.64-4.59-10.88-5.73A10.9,10.9,0,0,0,43.72,34c1.19-.88,2.17-2.78,2.28-6.56A6.58,6.58,0,0,0,44.59,23c.8-2.16.43-5.69-1.48-8.65a10.14,10.14,0,0,0-4-3.78,4.69,4.69,0,0,0,.33-1.71c0-3.23-3.26-5.75-7.42-5.75s-7.42,2.52-7.42,5.75a4.69,4.69,0,0,0,.33,1.71,10.14,10.14,0,0,0-4,3.78c-1.92,3-2.28,6.49-1.48,8.65A6.58,6.58,0,0,0,18,27.47c.11,3.78,1.09,5.68,2.28,6.56a10.89,10.89,0,0,0,2.1,5.23C19.16,40.35,14,42.39,11.53,45,7,50,7,59,7,59H57S57.17,49.83,52.47,45ZM32,6.07c2.36,0,4.42,1.28,4.42,2.75a1.67,1.67,0,0,1-.15.66,19.19,19.19,0,0,0-8.53,0,1.53,1.53,0,0,1-.16-.66C27.58,7.35,29.64,6.07,32,6.07Zm-8.59,9.86c1.66-2.57,4.5-4,8.59-4s6.93,1.47,8.59,4A8,8,0,0,1,42,21.12c-2.59-.35-5.93-1.89-10-6.45-2.65,3-6,5.92-10,6.45A8,8,0,0,1,23.41,15.93ZM38.87,26.05H25.17l-1.58-2.17A19.93,19.93,0,0,0,32,19.05a19.9,19.9,0,0,0,8.45,4.83l-1.58,2.17Zm.13,1.5c-.19,1.52-1,2.38-2.25,2.38s-2.1-.8-2.27-2.38Zm-9.43,0c-.18,1.58-.94,2.38-2.27,2.38s-2.07-.86-2.26-2.38ZM32,51.5c-1.72-.78-7.11-3.59-9.91-9a9.53,9.53,0,0,0,3.16-1.48,5,5,0,0,0,1.52-2.4c-2.32-.31-3.67-3.39-3.67-7.24a1,1,0,0,1-.64.29c-1,0-1.39-2.31-1.45-4.33,0-1.27.36-2.34.81-2.55l1.71,2.35c.15,3.11,2,4.25,3.78,4.25,2.16,0,3.53-1.44,3.76-3.88H33c.23,2.44,1.59,3.88,3.76,3.88,1.76,0,3.62-1.14,3.77-4.25l1.7-2.33A3.13,3.13,0,0,1,43,27.38c-.06,2-.48,4.33-1.45,4.33a1,1,0,0,1-.64-.29c0,4-1.47,7.2-4,7.27C35.62,40.62,34.19,41,32,41a6.75,6.75,0,0,1-2.93-.5,5.77,5.77,0,0,0,3.59,2.56,5.83,5.83,0,0,0,5.91-1.6c1,.3,2.11.69,3.3,1.14C39.07,47.91,33.7,50.72,32,51.5Z"/></g></svg>