<svg xmlns="http://www.w3.org/2000/svg" viewBox="0 0 64 64"><g id="_64px_Boxes" data-name="64px Boxes"><rect width="64" height="64" style="fill:none"/></g><g id="Production"><path d="M51.79,45.26c-2.46-2.57-9.2-4.15-11-5.61-.1-.85-.24-1.89-.39-2.89A33.34,33.34,0,0,1,47.31,38a.69.69,0,0,0,.87-.54A48.56,48.56,0,0,0,50,25.22c0-7.49-2.81-15.48-7.13-18.07a9.15,9.15,0,0,0-5.84-1,9.53,9.53,0,0,0-8.17-1.89C20.36,5.82,14,14,14,25.22a49,49,0,0,0,1.81,12.24.7.7,0,0,0,.88.54,32.78,32.78,0,0,1,7.36-1.3c-.11.94-.23,2-.35,3.06C22,41,14.93,42.42,12.21,45.26S8,59,8,59H56S54.55,48.14,51.79,45.26ZM26.42,40.42c.07-.58.58-5.32.58-5.32a14.85,14.85,0,0,1-4.06-8.28,18.07,18.07,0,0,1-.16-4.41c4.8-1.89,11.6-5.75,14.23-9.06,0,0,.32,0,.12.51a22.27,22.27,0,0,1-1.55,3,14.46,14.46,0,0,0,5.68,5.93,18.68,18.68,0,0,1-.2,4.06C40.53,30,38.24,34.45,35.72,36a8.4,8.4,0,0,1-6.71.44,4.46,4.46,0,0,0,3.15,2.31A7.94,7.94,0,0,0,37.61,38c.11.79.22,1.59.29,2.28.05.43.16,1.49,3.13,2.88-2.32,4-7.4,6.19-9,6.78-1.49-.64-6.14-2.88-8.39-6.8C26.54,42,26.37,40.87,26.42,40.42Z"/></g></svg>