<svg xmlns="http://www.w3.org/2000/svg" viewBox="0 0 64 64"><g id="_64px_Boxes" data-name="64px Boxes"><rect width="64" height="64" style="fill:none"/></g><g id="Production"><path d="M53.71,43.45C52,41.53,45,39.94,41.62,39.07,40.43,43.84,38.32,50,35,54.3a48.45,48.45,0,0,0-1.7-6.91c.93-1.43,2.19-3.65,2.19-3.65a4.39,4.39,0,0,0-7,0s1.26,2.22,2.19,3.65A48.91,48.91,0,0,0,29,54.26C25.83,49.93,23.72,43.77,22.5,39c-3.37.8-10.43,2.33-12.21,4.44C8.12,46,7,58.94,7,58.94H57S56.05,46,53.71,43.45Z"/><path d="M20.06,28.49c.52,3.41,2.59,6.61,6.27,9.75A9.12,9.12,0,0,0,32,40a9.14,9.14,0,0,0,5.67-1.76c3.63-3.09,5.73-6.36,6.26-9.74A7.36,7.36,0,0,0,46,22.94a5.93,5.93,0,0,0-1.23-4c.3-3.34.52-8.51-.79-10.59-1.6-2.56-3.55-3.82-7.26-3-2.43-1.15-4.09-1.88-8.36-.84-3,.73-6.21,1.91-7.92,3.88S18.9,15.61,19.17,19a6,6,0,0,0-1.17,4A7.37,7.37,0,0,0,20.06,28.49Zm1.61-7.72a1,1,0,0,1,.4-.09,1.29,1.29,0,0,1,.62.18c.14.65.25,1.14.29,1.31a1,1,0,0,0,1,.77V16.2a28.47,28.47,0,0,0,10.75-3.11L40,16.62v6.32a1,1,0,0,0,1-.77c0-.17.15-.66.29-1.31a1.29,1.29,0,0,1,.62-.18,1,1,0,0,1,.4.09c.45.21.77.9.77,2.17s-.42,3.32-2,3.82c0,3.82-2.68,6.92-5.34,9.19A6.16,6.16,0,0,1,32,37.07,6.16,6.16,0,0,1,28.28,36c-2.66-2.27-5.34-5.32-5.34-9.19-1.62-.5-2-2.54-2-3.82S21.22,21,21.67,20.77Z"/></g></svg>