<svg xmlns="http://www.w3.org/2000/svg" viewBox="0 0 64 64"><g id="Box"><rect width="64" height="64" style="fill:none"/></g><g id="Icon"><path d="M52.61,44.05c-2.18-2.37-8.46-4.48-11.38-5.37-.16-1.12-.36-2.41-.55-3.48a14,14,0,0,0,3.25-6.7A7.36,7.36,0,0,0,46,22.94a5.93,5.93,0,0,0-1.23-4c.31-3.34.51-8.51-.79-10.59-1.61-2.56-3.54-3.82-7.26-3-2.43-1.15-4.09-1.88-8.36-.84-3,.73-6.21,1.91-7.92,3.88S18.9,15.61,19.17,19a6,6,0,0,0-1.17,4,7.34,7.34,0,0,0,2.07,5.55,14.06,14.06,0,0,0,3.71,7.27c-.11.8-.23,1.75-.36,2.73-2.51.73-9.67,3-12,5.56C8.52,47.18,7,58.94,7,58.94H57S55.49,47.18,52.61,44.05ZM24,19V16.2a28.42,28.42,0,0,0,10.75-3.11L40,16.62V19a2,2,0,0,1,2.43.29c-.73-.42-1.75.29-2.25.71H23.82c-.5-.42-1.52-1.13-2.25-.71A2,2,0,0,1,24,19Zm14.42,2.8-.28,2.11a.33.33,0,0,1-.33.29H35.09a.4.4,0,0,1-.38-.26l-.86-2.14Zm-8.27,0-.86,2.14a.4.4,0,0,1-.38.26H26.19a.33.33,0,0,1-.33-.29l-.28-2.11ZM32.56,41c-2.68,0-5-.8-6.18-2,.07-.5.17-1.07.67-4.2-2.28-2.2-4.11-4.86-4.11-8.06-1.61-.5-2-2.54-2-3.82s.32-2,.78-2.17a1,1,0,0,1,.89,0l1.32,2,.2,1.47a2,2,0,0,0,2,1.73h2.84A2.19,2.19,0,0,0,31,24.61l.52-1.29a.56.56,0,0,1,1,0L33,24.61A2.19,2.19,0,0,0,35.09,26h2.84a2,2,0,0,0,2-1.73l.2-1.47,1.32-2a1,1,0,0,1,.9,0c.45.21.77.9.77,2.17s-.42,3.32-2,3.82c0,3.7-2.53,6.5-5.34,8.89A6.16,6.16,0,0,1,32,36.75a7.65,7.65,0,0,1-2.93-.63,6,6,0,0,0,3.59,2.58,6.7,6.7,0,0,0,5.46-.91s.13.88.21,1.6A9.77,9.77,0,0,1,32.56,41Z"/></g></svg>