<svg xmlns="http://www.w3.org/2000/svg" viewBox="0 0 64 64"><g id="Box"><rect width="64" height="64" style="fill:none"/></g><g id="Icon"><path d="M37.35,32.24A2.34,2.34,0,0,0,34.1,32c-.89.62-.87,1-2.1,1s-1.2-.41-2.09-1a2.35,2.35,0,0,0-3.26.27c-.78.94-.31,2.73.94,3.65a2.25,2.25,0,0,0-.08.58c0,1.78,2,3.18,4.49,3.18s4.49-1.4,4.49-3.18a2.25,2.25,0,0,0-.08-.58C37.66,35,38.14,33.18,37.35,32.24ZM32,37.65c-1.5,0-2.49-.71-2.49-1.18s1-1.19,2.49-1.19,2.49.7,2.49,1.19S33.5,37.65,32,37.65Zm12.55-1.32a6.89,6.89,0,0,0,5.08-4.64,6,6,0,0,0-.57-5,5.67,5.67,0,0,0-3.46-2.49,15.25,15.25,0,0,0-3.78-8.94,12,12,0,0,0-4.36-3,4.64,4.64,0,0,0-4.71-3.08,6.58,6.58,0,0,0-6.13,6.41c-.12,7.13,7.24,7.55,9.5,4.09.8-1.21,0-1.71,0-1.71-2,1.58-4.69,1.07-4.95-.7s1.7-3.2,4.23-2.56c5.66,1.69,7.65,7.6,7.24,12.65a3.45,3.45,0,0,1,2-.31,2.75,2.75,0,0,1,2.17,3.71,3.77,3.77,0,0,1-4.37,2.57,11.51,11.51,0,0,1-1.89,4A10.17,10.17,0,0,1,32,41.24a13.41,13.41,0,0,1-2.23-.19c1.11,3.47,5.9,3.35,8.68,1.78v0h0a9.62,9.62,0,0,1,.16,1.44c0,2.71-2.84,4.76-6.62,4.76s-6.63-2-6.63-4.76a38.91,38.91,0,0,1,.75-4.54,9.6,9.6,0,0,1-2.64-2.4h0a11.63,11.63,0,0,1-1.88-4,3.77,3.77,0,0,1-4.37-2.57,2.75,2.75,0,0,1,2.17-3.71,3.47,3.47,0,0,1,2,.31c-.29-3.64.61-7.61,3.14-10.22a9.36,9.36,0,0,1,.32-4.05c-3.93,2.35-6,6.55-6.43,11.11a5.67,5.67,0,0,0-3.46,2.49,6,6,0,0,0-.57,5,6.89,6.89,0,0,0,5.08,4.64A13,13,0,0,0,22.79,41c-.1.6-.18,1.09-.24,1.48A13.05,13.05,0,0,0,15,55H49a13,13,0,0,0-7.56-12.5q-.07-.59-.24-1.47A13.07,13.07,0,0,0,44.55,36.33Z"/></g></svg>