<svg xmlns="http://www.w3.org/2000/svg" viewBox="0 0 64 64"><g id="_64px_Boxes" data-name="64px Boxes"><rect width="64" height="64" style="fill:none"/></g><g id="Production"><path d="M32,16c4.43,0,7-3,7-7.38C39,3.66,36.32,1,32,1c-4.55,0-7,3.15-7,7.62C25,13.34,27.57,16,32,16Z"/><path d="M45.85,25.84c-3.09-4.79-6.49-7-10-7.58a28.77,28.77,0,0,0-7.7,0c-3.51.59-6.91,2.79-10,7.58A84.47,84.47,0,0,0,12,37.44c4.21,2.7,8.88-6,12-9.53v6.33c1.07-.18,1.19-1.24,2.46-1.24s1.39,1.28,2.77,1.28S30.62,33,32,33s1.38,1.28,2.77,1.28S36.15,33,37.54,33s1.39,1.06,2.46,1.24V27.91c3.16,3.5,7.83,12.23,12,9.53A84.47,84.47,0,0,0,45.85,25.84Z"/><path d="M34.23,45.08l5.45,4.25a62.1,62.1,0,0,0-3.83,5.48c-2.52,4.85,1.5,7.19,1.5,7.19,6.89-6.75,9.57-10.45,9.61-13.38S40.66,38,40.66,38C37.42,38.83,34.25,41,34.23,45.08Z"/><path d="M23.34,38S17,45.69,17,48.62,19.76,55.25,26.65,62c0,0,4-2.34,1.5-7.19a62.1,62.1,0,0,0-3.83-5.48l5.45-4.25C29.75,41,26.58,38.83,23.34,38Z"/></g></svg>