<svg xmlns="http://www.w3.org/2000/svg" viewBox="0 0 64 64"><g id="_64px_Boxes" data-name="64px Boxes"><rect width="64" height="64" style="fill:none"/></g><g id="Production"><path d="M52.61,44.11c-2.18-2.37-8.46-4.49-11.38-5.37-.16-1.12-.36-2.41-.55-3.49a14,14,0,0,0,3.25-6.69A7.36,7.36,0,0,0,46,23a6,6,0,0,0-1.23-4c.3-3.33.52-8.5-.79-10.58-1.6-2.57-3.55-3.82-7.26-3-2.43-1.16-4.09-1.88-8.36-.84-3,.72-6.21,1.91-7.92,3.88s-1.54,7.22-1.27,10.61A6,6,0,0,0,18,23a7.37,7.37,0,0,0,2.06,5.55,14.22,14.22,0,0,0,3.71,7.26c-.1.81-.22,1.75-.35,2.73-2.51.74-9.67,3-12,5.57C8.51,47.23,7,59,7,59H57S55.49,47.23,52.61,44.11ZM35.72,35.7A6.1,6.1,0,0,1,32,36.81a7.6,7.6,0,0,1-2.93-.64,6,6,0,0,0,3.59,2.59,6.75,6.75,0,0,0,5.46-.91s.28,1.91.27,2.41c.33,3.49-3.56,7.32-6,9.08-2.3-1.75-6.59-5.53-6.16-9,.24-1.92,0-.55.83-5.44-2.28-2.2-4.11-4.87-4.11-8.06-1.62-.5-2-2.55-2-3.82s.32-2,.77-2.17a1.08,1.08,0,0,1,1,.09c.14.65.25,1.13.29,1.31A1,1,0,0,0,24,23V16.25a28.4,28.4,0,0,0,10.75-3.1L40,16.67V23a1,1,0,0,0,1-.77c0-.18.15-.66.29-1.31a1.08,1.08,0,0,1,1-.09c.45.21.77.9.77,2.17s-.42,3.32-2,3.82C41.06,30.52,38.53,33.32,35.72,35.7Z"/></g></svg>