<svg xmlns="http://www.w3.org/2000/svg" viewBox="0 0 64 64"><g id="_64px_Boxes" data-name="64px Boxes"><rect width="64" height="64" style="fill:none"/></g><g id="Production"><path d="M51.79,43.62A49.82,49.82,0,0,0,46,38.72c-6.41,8.83-14.91,13.53-25.25,15.12-.64.1-.59-.24-.59-.24,8-2.75,17.75-7.65,21.9-15.12A34.07,34.07,0,0,0,46,22.4C46,12.18,39.73,5,32,5S18,12.18,18,22.4c0,10.38,4.69,20.46,11,23,0,.16-.22.19-.49.14-4.17-.81-7.38-3.84-9.89-7.22a54,54,0,0,0-6.38,5.31C9.45,46.64,8,58,8,58H56S54.55,46.64,51.79,43.62Zm-28.74-24S26,17.8,32,17.8s9,1.84,9,1.84a29.06,29.06,0,0,1-.23,8.61c-.62,3.7-3.43,10-8.72,10s-8.1-6.25-8.72-10A29.06,29.06,0,0,1,23.05,19.64Z"/></g></svg>