<svg xmlns="http://www.w3.org/2000/svg" viewBox="0 0 64 64"><g id="Box"><rect width="64" height="64" style="fill:none"/></g><g id="Icon"><path d="M55.16,44.77A3,3,0,0,0,52.34,42,40.86,40.86,0,0,1,41,39.77l-.18-.12c-.1-.85-.24-1.89-.39-2.89A33.34,33.34,0,0,1,47.31,38a.69.69,0,0,0,.87-.54A48.56,48.56,0,0,0,50,25.22c0-7.49-2.81-15.48-7.13-18.07a9.15,9.15,0,0,0-5.84-1,9.53,9.53,0,0,0-8.17-1.89C20.36,5.82,14,14,14,25.22a49,49,0,0,0,1.81,12.24.7.7,0,0,0,.88.54,32.78,32.78,0,0,1,7.36-1.3c-.1.86-.21,1.83-.32,2.81A40.86,40.86,0,0,1,11.66,42a3,3,0,0,0-2.82,2.82L8,59H56Zm-23.11,12S25.63,49.84,24,42.82c1.94-.69,2.39-2,2.44-2.4S27,35.1,27,35.1a14.85,14.85,0,0,1-4.06-8.28,18.07,18.07,0,0,1-.16-4.41c4.8-1.89,11.6-5.75,14.23-9.06,0,0,.32,0,.12.51a22.27,22.27,0,0,1-1.55,3,14.46,14.46,0,0,0,5.68,5.93,18.68,18.68,0,0,1-.2,4.06C40.53,30,38.24,34.45,35.72,36a8.4,8.4,0,0,1-6.71.44,4.46,4.46,0,0,0,3.15,2.31A7.94,7.94,0,0,0,37.61,38c.11.79.22,1.59.29,2.28a3.13,3.13,0,0,0,2.22,2.64C37.78,50.3,32.05,56.75,32.05,56.75Z"/><circle cx="27" cy="44" r="1.5"/><circle cx="30.1" cy="46.1" r="1.5"/><circle cx="33.9" cy="46.1" r="1.5"/><circle cx="37" cy="44" r="1.5"/></g></svg>