<svg id="Laag_1" data-name="Laag 1" xmlns="http://www.w3.org/2000/svg" xmlns:xlink="http://www.w3.org/1999/xlink" viewBox="0 0 70.85 70.85"><defs><style>.cls-1,.cls-5{fill:none;}.cls-2{clip-path:url(#clip-path);}.cls-3{fill:#f2bfbb;}.cls-4{fill:#bc253a;}.cls-5{stroke:#bc253a;stroke-miterlimit:10;stroke-width:0.74px;}</style><clipPath id="clip-path"><rect class="cls-1" width="70.85" height="70.85"/></clipPath></defs><g class="cls-2"><path class="cls-3" d="M25.82,37.38a2.67,2.67,0,0,0,.73.38,8.37,8.37,0,0,0,3.93.42,3.68,3.68,0,0,0,2.7-1.46,3.91,3.91,0,0,0,.17-2.3c0-.18,0-.35,0-.54a6.18,6.18,0,0,0-1.14-3.51,5.32,5.32,0,0,0-.62-.56,3.1,3.1,0,0,0-2.35-.66,6.31,6.31,0,0,0-3.73,2.37,4,4,0,0,0-.87,3.42,3.55,3.55,0,0,0,1.22,2.44"/><path class="cls-4" d="M26.68,36.53a2.29,2.29,0,0,0,.56.29,6.45,6.45,0,0,0,3,.33A2.91,2.91,0,0,0,32.37,36a3.14,3.14,0,0,0,.13-1.78c0-.14,0-.27,0-.42a4.78,4.78,0,0,0-.87-2.71,4.65,4.65,0,0,0-.48-.43,2.41,2.41,0,0,0-1.82-.51A4.9,4.9,0,0,0,26.41,32a3.07,3.07,0,0,0-.67,2.64,2.74,2.74,0,0,0,.94,1.89"/><path class="cls-5" d="M34.69,29C35.47,22.79,37.1,11.48,37.91,5,23.08,6.4,16.84,12.58,16.84,12.58c.21,6.08,2.2,11.5,3.24,16.48a35.18,35.18,0,0,1,.53,7.85A41.35,41.35,0,0,1,18.39,48c-1.54,4.51,1.49,7.08,4.18,7.57s9.75-1.45,12.61-1.51,5.56,1.43,8.64,1.6,6.31-1.89,6.31-1.89c1,.94,4.66,2,5.74-.21,1.33-2.76-.22-4.79-2.42-5.07S50,48.2,48,47.87s-8.75-5.07-10.45-6.06c-1.12-.65-2.37-2.59-3-4.91h0A34.85,34.85,0,0,1,34.69,29Z"/></g></svg>