<svg id="Production" xmlns="http://www.w3.org/2000/svg" viewBox="0 0 64 64"><defs><style>.cls-1{fill:#bc243a;}.cls-2{fill:none;}</style></defs><path class="cls-1" d="M25.5,12c3.14,0,4.95-2.21,4.95-5.39C30.45,3,28.55,1,25.5,1c-3.22,0-4.95,2.3-4.95,5.57C20.55,10,22.36,12,25.5,12Z"/><path class="cls-1" d="M31,14.7a26,26,0,0,0-11,0c-6.37,1.56-6,11.65-6,20.36A3.85,3.85,0,0,0,17.83,39V29.81a28.73,28.73,0,0,1,.76-7.48c.13-.41.41-.33.41-.33V63a5.22,5.22,0,0,0,5.24-5S25,38.71,25,38.49A.51.51,0,0,1,25.5,38a.5.5,0,0,1,.52.49c0,.22.73,19.32.73,19.32A5.22,5.22,0,0,0,32,63V22s.3-.1.45.33a28.71,28.71,0,0,1,.72,7.44V39A3.84,3.84,0,0,0,37,35.06C37,26.35,37.4,16.22,31,14.7Z"/><rect class="cls-2" x="27.81" y="-2" width="33.19" height="33.19"/><path class="cls-1" d="M50.41,15.68A12.45,12.45,0,1,0,62.85,28.12,12.44,12.44,0,0,0,50.41,15.68Zm0,21.81a9.37,9.37,0,1,1,9.36-9.37A9.38,9.38,0,0,1,50.41,37.49Z"/><path class="cls-1" d="M57.15,28h0l-5.55-.55-.44-6.07a.77.77,0,0,0-.77-.75.75.75,0,0,0-.78.75l-.52,7.15a1.28,1.28,0,0,0,1.16,1.28s6.88-.49,6.88-.49c.45,0,.78-.23.78-.66S57.63,28,57.15,28Z"/><path class="cls-1" d="M44.75,2.89,39.43,6.12l3.12,3.31L33,11.74,38.32,8.5,35.2,5.19Z"/></svg>