<svg id="Laag_1" data-name="Laag 1" xmlns="http://www.w3.org/2000/svg" viewBox="0 0 46.74 49.95"><defs><style>.cls-1{fill:#bc253a;}</style></defs><path class="cls-1" d="M32.24,20.63l11.57,3.08-.13-.47-12.77-6a11.33,11.33,0,0,0-.66-1.07l5.17-1.57,1.5-4.88-.2-.24-2.34,3.36L28.86,14a12,12,0,0,0-1.64-1.49l7.54-5.64,1.37-5.21-.37-.28L33.64,5.8,24,10.54c-.27-.09-.54-.18-.82-.25l-4-6.5-2,.48L16.33,12a8,8,0,0,0-.59.58L5,12.77.89,9.64.7,10l3.74,4.17,9.32,1.56A11.23,11.23,0,0,0,13,17.8L7.53,19.37l-3.91-2V18l3.78,3.43,5.37-1a12.42,12.42,0,0,0-.11,1.24L4.49,32.77l.07.36L13,25.27c0,.2.08.4.13.6l-2.91,22,.42.57L15.5,31.57c2.65,4.23,6.75,6.6,10.6,5.67s6.4-4.91,6.83-9.86L44.73,40l.13-.76L32.42,21.3C32.37,21.07,32.31,20.85,32.24,20.63Z"/></svg>